<svg aria-hidden="true" style="position: absolute; width: 0; height: 0; overflow: hidden;" version="1.1" xmlns="http://www.w3.org/2000/svg" xmlns:xlink="http://www.w3.org/1999/xlink">
<defs>
<symbol id="icon-telegram" viewBox="0 0 32 32">
<path fill="#f7fbfb" style="fill: var(--color1, #f7fbfb)" d="M15.992 2.667c-2.637 0-5.215 0.782-7.408 2.247s-3.902 3.548-4.911 5.984c-1.009 2.436-1.273 5.117-0.759 7.704s1.784 4.962 3.649 6.827c1.865 1.865 4.24 3.135 6.827 3.649s5.267 0.25 7.704-0.759c2.436-1.009 4.519-2.718 5.984-4.911s2.247-4.771 2.247-7.408c0-1.751-0.345-3.485-1.015-5.102s-1.652-3.088-2.89-4.326c-1.238-1.238-2.708-2.22-4.326-2.89s-3.352-1.015-5.102-1.015zM20.232 22.869c-0.050 0.125-0.126 0.237-0.222 0.33s-0.212 0.164-0.339 0.208c-0.127 0.044-0.261 0.061-0.395 0.050s-0.263-0.052-0.38-0.118l-3.62-2.813-2.323 2.144c-0.054 0.040-0.117 0.065-0.183 0.075s-0.134 0.001-0.197-0.023l0.445-3.985 0.013 0.012 0.009-0.079c0 0 6.513-5.931 6.779-6.183 0.269-0.252 0.18-0.307 0.18-0.307 0.016-0.307-0.481 0-0.481 0l-8.631 5.552-3.593-1.224c0 0-0.552-0.197-0.604-0.633-0.055-0.432 0.621-0.667 0.621-0.667l14.289-5.677c0 0 1.175-0.523 1.175 0.344l-2.544 12.995z"></path>
</symbol>
<symbol id="icon-star" viewBox="0 0 32 32">
<path fill="#f7fbfb" style="fill: var(--color1, #f7fbfb)" d="M15.247 6.173c0.237-0.764 1.268-0.764 1.505 0l1.913 6.165c0.106 0.342 0.41 0.573 0.753 0.573h6.189c0.767 0 1.085 1.028 0.465 1.499l-5.007 3.81c-0.277 0.211-0.393 0.585-0.288 0.927l1.913 6.165c0.237 0.764-0.598 1.399-1.218 0.927l-5.007-3.81c-0.277-0.211-0.653-0.211-0.93 0l-5.007 3.81c-0.62 0.472-1.455-0.163-1.218-0.927l1.913-6.165c0.106-0.342-0.010-0.716-0.288-0.927l-5.007-3.81c-0.62-0.472-0.301-1.499 0.465-1.499h6.189c0.343 0 0.647-0.231 0.753-0.573l1.913-6.165z"></path>
</symbol>
<symbol id="icon-round" viewBox="0 0 32 32">
<path fill="#5b86a1" style="fill: var(--color2, #5b86a1)" d="M16 9.333c-7.36 0-13.333 2.987-13.333 6.667 0 2.987 3.92 5.507 9.333 6.36v2.693c0 0.6 0.72 0.893 1.133 0.467l3.72-3.72c0.267-0.267 0.267-0.68 0-0.947l-3.72-3.72c-0.094-0.092-0.213-0.154-0.342-0.179s-0.263-0.010-0.384 0.041c-0.121 0.051-0.224 0.137-0.297 0.247s-0.111 0.239-0.11 0.37v2.027c-4.2-0.747-6.667-2.533-6.667-3.64 0-1.413 4.053-4 10.667-4s10.667 2.587 10.667 4c0 0.88-1.6 2.24-4.427 3.12-0.547 0.173-0.907 0.68-0.907 1.253 0 0.893 0.867 1.547 1.707 1.28 3.773-1.173 6.293-3.267 6.293-5.653 0-3.68-5.973-6.667-13.333-6.667z"></path>
</symbol>
<symbol id="icon-place" viewBox="0 0 32 32">
<path fill="#f7fbfb" style="fill: var(--color1, #f7fbfb)" d="M16 2.4c-5.307 0-9.6 4.257-9.6 9.52 0 7.14 9.6 17.68 9.6 17.68s9.6-10.54 9.6-17.68c0-5.263-4.293-9.52-9.6-9.52zM16 15.32c-0.909 0-1.781-0.358-2.424-0.996s-1.004-1.502-1.004-2.404c0-0.902 0.361-1.767 1.004-2.404s1.515-0.996 2.424-0.996c0.909 0 1.781 0.358 2.424 0.996s1.004 1.502 1.004 2.404c0 0.902-0.361 1.767-1.004 2.404s-1.515 0.996-2.424 0.996z"></path>
</symbol>
<symbol id="icon-phone" viewBox="0 0 32 32">
<path fill="#f7fbfb" style="fill: var(--color1, #f7fbfb)" d="M21.415 1.6h-10.831c-0.898 0-1.759 0.345-2.393 0.959s-0.991 1.446-0.991 2.314v22.255c0 0.868 0.357 1.7 0.991 2.314s1.496 0.959 2.393 0.959h10.831c0.898 0 1.759-0.345 2.393-0.959s0.991-1.446 0.991-2.314v-22.255c0-0.868-0.357-1.7-0.991-2.314s-1.496-0.959-2.393-0.959zM16 29.091c-1.124 0-2.031-0.877-2.031-1.964s0.907-1.964 2.031-1.964c1.124 0 2.031 0.877 2.031 1.964s-0.907 1.964-2.031 1.964zM22.092 23.855h-12.185v-18.327h12.185v18.327z"></path>
</symbol>
<symbol id="icon-Logo" viewBox="0 0 32 32">
<path fill="#f7fbfb" style="fill: var(--color1, #f7fbfb)" d="M28.315 6.422l-9.697-5.292c-0.705-0.385-1.635-0.597-2.618-0.597s-1.913 0.212-2.618 0.597l-9.697 5.292c-1.468 0.801-2.618 2.684-2.618 4.286v10.586c0 1.602 1.15 3.485 2.618 4.286l9.697 5.291c0.705 0.385 1.635 0.597 2.618 0.597s1.913-0.212 2.618-0.597l9.697-5.293c1.468-0.801 2.618-2.684 2.618-4.286v-10.585c0-1.598-1.15-3.482-2.618-4.283zM4.226 24.69c-1.125-0.614-2.076-2.17-2.076-3.398v-4.524c3.453-0.257 5.498 0.608 8.052 1.694 2.298 0.978 5.062 2.152 9.577 2.784-0.844 0.153-1.696 0.294-2.545 0.434-4.612 0.761-8.973 1.485-11.357 3.911l-1.651-0.901zM18.793 15.483c-2.084 0.783-4.798 1.485-8.811 1.764-1.774-0.745-3.464-1.375-5.677-1.52l7.374-6.969 7.115 6.725zM18.277 13.547l5.302-5.011 3.985 3.767c-2.294 0.197-3.9 0.966-5.68 1.822-0.62 0.298-1.28 0.615-2.014 0.928l-1.593-1.506zM29.849 21.292c0 1.228-0.95 2.784-2.076 3.398l-9.698 5.292c-0.534 0.292-1.29 0.461-2.075 0.461s-1.542-0.167-2.076-0.46l-7.084-3.867c2.187-2.042 6.272-2.716 10.582-3.427 4.858-0.8 9.859-1.627 12.428-4.592l-0.001 3.194zM29.849 16.183c-1.14 2.337-3.733 3.562-6.823 4.368-5.323-0.365-8.46-1.408-11.032-2.458 5.258-0.595 8.072-1.947 10.381-3.058 2.274-1.094 4.096-1.964 7.473-1.715v2.863zM29.849 12.292c-0.275-0.019-0.545-0.033-0.803-0.039l-5.082-4.804c-0.050-0.048-0.11-0.085-0.176-0.111s-0.136-0.039-0.207-0.039c-0.071 0-0.142 0.013-0.207 0.039s-0.125 0.064-0.176 0.111l-5.684 5.373-5.451-5.151c-0.050-0.048-0.11-0.085-0.176-0.111s-0.136-0.039-0.207-0.039c-0.071 0-0.142 0.013-0.207 0.039s-0.126 0.063-0.176 0.111l-8.502 8.037c-0.209 0.007-0.422 0.017-0.64 0.032v-5.032c0-1.228 0.951-2.785 2.076-3.398l9.698-5.292c0.535-0.292 1.292-0.46 2.076-0.46s1.542 0.167 2.076 0.46l9.698 5.292c1.125 0.614 2.076 2.17 2.076 3.398l-0.003 1.583z"></path>
</symbol>
<symbol id="icon-instagram" viewBox="0 0 32 32">
<path fill="#f7fbfb" style="fill: var(--color1, #f7fbfb)" d="M10.4 2.667h11.2c4.267 0 7.733 3.467 7.733 7.733v11.2c0 2.051-0.815 4.018-2.265 5.468s-3.417 2.265-5.468 2.265h-11.2c-4.267 0-7.733-3.467-7.733-7.733v-11.2c0-2.051 0.815-4.018 2.265-5.468s3.417-2.265 5.468-2.265zM10.133 5.333c-1.273 0-2.494 0.506-3.394 1.406s-1.406 2.121-1.406 3.394v11.733c0 2.653 2.147 4.8 4.8 4.8h11.733c1.273 0 2.494-0.506 3.394-1.406s1.406-2.121 1.406-3.394v-11.733c0-2.653-2.147-4.8-4.8-4.8h-11.733zM23 7.333c0.442 0 0.866 0.176 1.178 0.488s0.488 0.736 0.488 1.179c0 0.442-0.176 0.866-0.488 1.178s-0.736 0.488-1.178 0.488c-0.442 0-0.866-0.176-1.178-0.488s-0.488-0.736-0.488-1.178c0-0.442 0.176-0.866 0.488-1.179s0.736-0.488 1.178-0.488zM16 9.333c1.768 0 3.464 0.702 4.714 1.953s1.953 2.946 1.953 4.714c0 1.768-0.702 3.464-1.953 4.714s-2.946 1.953-4.714 1.953c-1.768 0-3.464-0.702-4.714-1.953s-1.953-2.946-1.953-4.714c0-1.768 0.702-3.464 1.953-4.714s2.946-1.953 4.714-1.953zM16 12c-1.061 0-2.078 0.421-2.828 1.172s-1.172 1.768-1.172 2.828c0 1.061 0.421 2.078 1.172 2.828s1.768 1.172 2.828 1.172 2.078-0.421 2.828-1.172c0.75-0.75 1.172-1.768 1.172-2.828s-0.421-2.078-1.172-2.828c-0.75-0.75-1.768-1.172-2.828-1.172z"></path>
</symbol>
<symbol id="icon-facebook" viewBox="0 0 32 32">
<path fill="#f7fbfb" style="fill: var(--color1, #f7fbfb)" d="M16 2.72c-7.333 0-13.333 5.987-13.333 13.36 0 6.667 4.88 12.2 11.253 13.2v-9.333h-3.387v-3.867h3.387v-2.947c0-3.347 1.987-5.187 5.040-5.187 1.453 0 2.973 0.253 2.973 0.253v3.293h-1.68c-1.653 0-2.173 1.027-2.173 2.080v2.507h3.707l-0.6 3.867h-3.107v9.333c3.142-0.496 6.003-2.099 8.067-4.52s3.194-5.499 3.187-8.68c0-7.373-6-13.36-13.333-13.36z"></path>
</symbol>
<symbol id="icon-email" viewBox="0 0 32 32">
<path fill="#f7fbfb" style="fill: var(--color1, #f7fbfb)" d="M26.88 5.6h-21.76c-1.496 0-2.706 1.17-2.706 2.6l-0.014 15.6c0 1.43 1.224 2.6 2.72 2.6h21.76c1.496 0 2.72-1.17 2.72-2.6v-15.6c0-1.43-1.224-2.6-2.72-2.6zM26.336 11.125l-9.615 5.746c-0.435 0.26-1.006 0.26-1.442 0l-9.615-5.746c-0.136-0.073-0.256-0.172-0.351-0.291s-0.164-0.254-0.203-0.399c-0.039-0.145-0.046-0.296-0.022-0.443s0.079-0.289 0.162-0.416c0.083-0.127 0.192-0.236 0.32-0.322s0.274-0.145 0.427-0.175c0.153-0.030 0.311-0.030 0.464-0s0.299 0.089 0.427 0.174l9.112 5.447 9.112-5.447c0.129-0.085 0.274-0.144 0.427-0.174s0.311-0.030 0.464 0 0.298 0.090 0.427 0.175c0.128 0.085 0.237 0.195 0.32 0.322s0.138 0.268 0.162 0.416c0.024 0.148 0.016 0.299-0.022 0.443s-0.108 0.281-0.203 0.399c-0.095 0.119-0.215 0.217-0.351 0.291z"></path>
</symbol>
<symbol id="icon-close" viewBox="0 0 32 32">
<path stroke-linejoin="round" stroke-linecap="round" stroke-miterlimit="4" stroke-width="1.6" d="M24 24l-16-16M24 8l-16 16"></path>
</symbol>
</defs>
</svg>
